<svg width="24" height="24" viewBox="0 0 24 24" fill="none" xmlns="http://www.w3.org/2000/svg">
<path d="M18.5 19.0734V17.8861H16.8194V16.6359H16.8013C16.7913 16.5201 16.7496 16.4092 16.6808 16.3156C16.612 16.2219 16.5188 16.149 16.4113 16.1049C16.2924 16.0567 15.198 15.5618 13.7441 14.9006L16.9143 13.4546C17.027 13.4031 17.1219 13.3193 17.1868 13.2136C17.2518 13.108 17.2839 12.9854 17.2791 12.8614C17.2742 12.7374 17.2327 12.6177 17.1597 12.5175C17.0867 12.4173 16.9856 12.341 16.8693 12.2985L14.0561 11.272L16.8686 10.2445C16.9904 10.2002 17.0955 10.119 17.1692 10.0123C17.2429 9.90547 17.2815 9.77835 17.2798 9.64855C17.2781 9.51874 17.2361 9.39269 17.1596 9.2879C17.0831 9.1831 16.9759 9.10476 16.853 9.06375L14.1979 8.17301L16.853 7.28123C16.951 7.2483 17.0393 7.19149 17.11 7.11591C17.1807 7.04032 17.2315 6.94833 17.2579 6.84821C17.2843 6.74808 17.2854 6.64295 17.2612 6.54226C17.237 6.44158 17.1882 6.3485 17.1192 6.27138H17.9072V2H6.36944V6.27138H7.35016C7.28116 6.3485 7.23236 6.44158 7.20816 6.54226C7.18396 6.64295 7.18511 6.74808 7.21151 6.84821C7.2379 6.94833 7.28872 7.04032 7.3594 7.11591C7.43007 7.19149 7.51838 7.2483 7.6164 7.28123L10.2715 8.17301L7.6164 9.06479C7.49344 9.1058 7.38628 9.18414 7.3098 9.28894C7.23331 9.39373 7.19129 9.51978 7.18958 9.64959C7.18786 9.7794 7.22654 9.90652 7.30023 10.0133C7.37392 10.1201 7.47897 10.2012 7.6008 10.2455L10.4137 11.272L7.6008 12.2999C7.48446 12.3425 7.38339 12.4187 7.31045 12.519C7.2375 12.6192 7.19599 12.739 7.1912 12.8629C7.1864 12.9869 7.21854 13.1095 7.28352 13.2151C7.34849 13.3207 7.44338 13.4046 7.55608 13.456C8.73856 13.9956 9.79035 14.4756 10.726 14.902C9.28629 15.5562 8.20053 16.048 8.06291 16.1046C7.95258 16.1463 7.85632 16.2185 7.78527 16.3128C7.71422 16.4071 7.67129 16.5196 7.66147 16.6373H7.64136V17.8874H5.5V19.0748H6.93069V19.3939C6.69004 19.5846 6.51559 19.8465 6.43216 20.1423C6.34874 20.4381 6.3606 20.7527 6.46606 21.0414C6.57152 21.33 6.7652 21.578 7.01952 21.75C7.27384 21.922 7.57585 22.0092 7.88254 21.9992C8.18922 21.9893 8.48496 21.8827 8.72764 21.6945C8.97032 21.5064 9.14756 21.2464 9.23415 20.9515C9.32073 20.6566 9.31224 20.3419 9.20987 20.0521C9.10751 19.7624 8.9165 19.5123 8.66403 19.3376V19.0748H9.92555V20.9351H14.3116V19.0734H15.528V19.406C15.2911 19.5997 15.121 19.8631 15.0417 20.1589C14.9625 20.4548 14.9781 20.7681 15.0864 21.0546C15.1947 21.341 15.3901 21.5861 15.6451 21.7552C15.9001 21.9242 16.2018 22.0087 16.5073 21.9966C16.8128 21.9844 17.1069 21.8764 17.3477 21.6877C17.5886 21.4989 17.7641 21.2391 17.8494 20.945C17.9348 20.6508 17.9256 20.3373 17.8233 20.0486C17.7209 19.76 17.5305 19.5109 17.279 19.3366V19.073L18.5 19.0734ZM12.7706 2.65703H17.0974V4.0263H12.7706V2.65703ZM7.08045 3.97143V2.65703H11.1711V3.97143H7.08045ZM8.53645 6.27138H15.9347L12.2347 7.51355L8.53645 6.27138ZM9.70403 9.68223L12.2347 8.83247L14.7654 9.68223L12.2347 10.607L9.70403 9.68223ZM9.46136 12.9514L12.2347 11.9377L15.008 12.9514C14.1005 13.365 13.1416 13.8022 12.2347 14.2155C11.3268 13.8022 10.3679 13.365 9.46032 12.9514H9.46136ZM15.8307 17.8861H8.62936V17.2193C9.03288 17.0425 10.24 16.4966 12.2347 15.5889C14.2138 16.4897 15.4185 17.0346 15.8314 17.2155L15.8307 17.8861Z" fill="#054F31"/>
</svg>
