<svg width="24" height="24" viewBox="0 0 24 24" fill="none" xmlns="http://www.w3.org/2000/svg">
<path d="M4.02107 8.47954L2.06183 3.41284L1.94057 3.09961H0V4.07613H1.25949L3.23739 9.19803C3.45199 8.84797 3.7134 8.5992 4.02107 8.47954Z" fill="#AAAAAA"/>
<path d="M6.8669 8.61781C6.8669 8.43356 6.71763 8.28613 6.53103 8.28613H5.89642C5.70975 8.28613 5.56055 8.43356 5.56055 8.61781V16.2824C5.93389 16.0152 6.38156 15.8402 6.8667 15.785L6.8669 8.61781Z" fill="#AAAAAA"/>
<path d="M5.28054 16.5119V8.61719H4.58053C1.80969 8.61719 1.76302 18.6307 4.44053 18.9715C4.41253 18.8241 4.40326 18.6675 4.40326 18.5201C4.4036 17.7279 4.7394 17.0186 5.28054 16.5119Z" fill="#AAAAAA"/>
<path d="M20.5621 8.28613H19.937C19.7503 8.28613 19.5918 8.43356 19.5918 8.61781V18.9813C19.5918 19.1656 19.7505 19.313 19.937 19.313H20.5621C20.7487 19.313 20.9073 19.1656 20.9073 18.9813V8.61781C20.9073 8.43356 20.7487 8.28613 20.5621 8.28613Z" fill="#AAAAAA"/>
<path d="M21.8865 8.61719H21.1865V18.9807H21.8865C24.7043 18.9807 24.7043 8.61719 21.8865 8.61719Z" fill="#AAAAAA"/>
<path d="M7.14648 15.7656H7.19314C8.7325 15.7656 9.97319 17.0001 9.97319 18.5201C9.97319 18.6765 9.96386 18.824 9.93592 18.9807H19.312V8.61719H7.14648V15.7656Z" fill="#AAAAAA"/>
<path d="M18.4249 20.1973H16.363C16.1392 20.1973 15.9619 20.3723 15.9619 20.5934C15.9619 20.8145 16.1392 20.9987 16.363 20.9987H18.4249C18.6488 20.9987 18.8354 20.8145 18.8354 20.5934C18.8354 20.3723 18.6488 20.1973 18.4249 20.1973Z" fill="#AAAAAA"/>
<path d="M18.1925 19.2578H16.6064V19.921H18.1925V19.2578Z" fill="#AAAAAA"/>
<path d="M8.32252 7.52216V8.34207H10.0111V7.52216C10.8978 7.19055 11.5319 6.33383 11.5319 5.3388C11.5319 4.04912 10.4684 2.99902 9.1622 2.99902C7.85604 2.99902 6.80176 4.04919 6.80176 5.3388C6.80176 6.33376 7.4269 7.19049 8.32252 7.52216ZM9.16253 3.59785C10.1421 3.59785 10.9258 4.38093 10.9258 5.33893C10.9258 6.29694 10.1421 7.08002 9.16253 7.08002C8.19225 7.08002 7.40857 6.29701 7.40857 5.33893C7.40857 4.38086 8.19191 3.59779 9.1622 3.59779L9.16253 3.59785Z" fill="#AAAAAA"/>
<path d="M9.28372 5.47671L10.1047 4.71207C10.1793 4.64762 10.1887 4.53708 10.1141 4.46337C10.0487 4.38972 9.9274 4.38053 9.8528 4.45418L9.03185 5.20955C8.9969 5.24326 8.97647 5.28876 8.97473 5.33672C8.973 5.38468 8.99009 5.43148 9.02252 5.46752C9.05629 5.50196 9.10245 5.52218 9.15122 5.5239C9.19998 5.52561 9.24751 5.50869 9.28372 5.47671Z" fill="#AAAAAA"/>
<path d="M14.4049 6.16762H18.6313C18.7339 6.16762 18.8271 6.07546 18.8271 5.97418C18.8271 5.86338 18.7338 5.77148 18.6313 5.77148H14.4049C14.3023 5.77148 14.209 5.86358 14.209 5.97418C14.209 6.07546 14.3023 6.16762 14.4049 6.16762Z" fill="#AAAAAA"/>
<path d="M14.4049 6.87809H18.6312C18.6837 6.87809 18.734 6.85771 18.7712 6.82143C18.8083 6.78516 18.8291 6.73595 18.8291 6.68465C18.8291 6.63335 18.8083 6.58414 18.7712 6.54787C18.734 6.51159 18.6837 6.49121 18.6312 6.49121H14.4049C14.3524 6.49121 14.3021 6.51159 14.265 6.54787C14.2279 6.58414 14.207 6.63335 14.207 6.68465C14.207 6.73595 14.2279 6.78516 14.265 6.82143C14.3021 6.85771 14.3524 6.87809 14.4049 6.87809Z" fill="#AAAAAA"/>
<path d="M14.4049 7.59535H18.6313C18.7339 7.59535 18.8271 7.50319 18.8271 7.40191C18.8271 7.29112 18.7338 7.19922 18.6313 7.19922H14.4049C14.3023 7.19922 14.209 7.29138 14.209 7.40191C14.209 7.50319 14.3023 7.59535 14.4049 7.59535Z" fill="#AAAAAA"/>
<path d="M14.4049 8.30582H18.6312C18.6837 8.30582 18.734 8.28544 18.7712 8.24917C18.8083 8.21289 18.8291 8.16369 18.8291 8.11238C18.8291 8.06108 18.8083 8.01187 18.7712 7.97559C18.734 7.93932 18.6837 7.91895 18.6312 7.91895H14.4049C14.3524 7.91895 14.3021 7.93932 14.265 7.97559C14.2279 8.01187 14.207 8.06108 14.207 8.11238C14.207 8.16369 14.2279 8.21289 14.265 8.24917C14.3021 8.28544 14.3524 8.30582 14.4049 8.30582Z" fill="#AAAAAA"/>
<path d="M7.19323 16.0449C5.80314 16.0449 4.68359 17.1504 4.68359 18.5229C4.68359 19.8863 5.80314 21.001 7.19323 21.001C8.57399 21.001 9.69328 19.8865 9.69328 18.5229C9.69328 17.1502 8.57366 16.0449 7.19323 16.0449ZM7.21323 19.9844C6.41029 19.9844 5.75941 19.3481 5.75941 18.5631C5.75941 17.7781 6.41029 17.1418 7.21323 17.1418C8.01618 17.1418 8.66706 17.7781 8.66706 18.5631C8.66706 19.3481 8.01605 19.9844 7.21323 19.9844Z" fill="#AAAAAA"/>
</svg>
