<svg width="24" height="24" viewBox="0 0 24 24" fill="none" xmlns="http://www.w3.org/2000/svg">
<g clip-path="url(#clip0_3701_28389)">
<path d="M23.9971 13.6826L20.0932 9.24902H14.7186V14.4855H2.33691L5.09184 18.1146H5.17191C5.21497 16.6025 6.4795 15.3837 8.04242 15.3837C9.60533 15.3837 10.8691 16.6002 10.9129 18.1146H16.4371C16.4802 16.6025 17.7447 15.3837 19.3076 15.3837C20.8705 15.3837 22.1343 16.6002 22.1781 18.1146H24.0002L23.9971 13.6826ZM16.2536 13.6826V10.2962H19.6022L22.3594 13.6826H16.2536Z" fill="#054F31"/>
<path d="M8.04297 16.0801C7.6257 16.0799 7.21775 16.2036 6.87066 16.4354C6.52358 16.6672 6.25294 16.9968 6.09295 17.3826C5.93296 17.7683 5.89079 18.1928 5.97178 18.6025C6.05276 19.0122 6.25326 19.3887 6.54795 19.6844C6.84264 19.98 7.21828 20.1817 7.62741 20.2638C8.03655 20.3458 8.46081 20.3047 8.84659 20.1455C9.23237 19.9864 9.56235 19.7163 9.79484 19.3695C10.0273 19.0227 10.1519 18.6147 10.1528 18.1971C10.1534 17.9193 10.0993 17.6442 9.99351 17.3874C9.88775 17.1307 9.73245 16.8973 9.53649 16.7007C9.34052 16.504 9.10774 16.348 8.85147 16.2415C8.59519 16.135 8.32045 16.0802 8.04297 16.0801ZM8.04297 19.1701C7.8496 19.1701 7.66058 19.1127 7.49986 19.005C7.33914 18.8974 7.21396 18.7445 7.14017 18.5656C7.06638 18.3867 7.0473 18.1899 7.08536 18.0001C7.12341 17.8104 7.21689 17.6362 7.35394 17.4997C7.49099 17.3631 7.66545 17.2704 7.85521 17.2332C8.04498 17.196 8.24151 17.216 8.4199 17.2907C8.59829 17.3653 8.75052 17.4913 8.8573 17.6527C8.96407 17.8141 9.02059 18.0035 9.0197 18.1971C9.0189 18.4558 8.91564 18.7037 8.73255 18.8864C8.54947 19.069 8.30149 19.1716 8.04297 19.1716V19.1701Z" fill="#054F31"/>
<path d="M19.3059 16.0801C18.8886 16.0801 18.4808 16.2039 18.1338 16.4358C17.7868 16.6677 17.5163 16.9973 17.3564 17.3831C17.1965 17.7688 17.1545 18.1933 17.2355 18.603C17.3166 19.0126 17.5172 19.389 17.8119 19.6846C18.1066 19.9802 18.4822 20.1818 18.8914 20.2638C19.3005 20.3458 19.7247 20.3046 20.1104 20.1455C20.4962 19.9863 20.8261 19.7162 21.0586 19.3694C21.291 19.0226 21.4156 18.6147 21.4165 18.1971C21.4172 17.9192 21.3631 17.644 21.2573 17.3871C21.1515 17.1303 20.9962 16.8968 20.8001 16.7002C20.604 16.5035 20.3711 16.3475 20.1147 16.2411C19.8583 16.1347 19.5835 16.08 19.3059 16.0801ZM19.3059 19.1701C19.1125 19.1701 18.9235 19.1127 18.7628 19.005C18.6021 18.8974 18.4769 18.7445 18.4031 18.5656C18.3293 18.3867 18.3102 18.1899 18.3483 18.0001C18.3863 17.8104 18.4798 17.6362 18.6169 17.4997C18.7539 17.3631 18.9284 17.2704 19.1181 17.2332C19.3079 17.196 19.5044 17.216 19.6828 17.2907C19.8612 17.3653 20.0134 17.4913 20.1202 17.6527C20.227 17.8141 20.2835 18.0035 20.2826 18.1971C20.2818 18.4558 20.1786 18.7037 19.9955 18.8864C19.8124 19.069 19.5644 19.1716 19.3059 19.1716V19.1701Z" fill="#054F31"/>
<path d="M11.8936 13.682H14.1613V10.6797H12.9753L11.8936 13.682Z" fill="#054F31"/>
<path d="M5.64966 13.6824L3.90545 12.1816L2.61523 13.6824H5.64966Z" fill="#054F31"/>
<path d="M11.1617 13.6824L13.5337 7.2589L10.5687 4.5711L2.33719 3L0 8.58579L6.69658 13.6824H11.1617Z" fill="#054F31"/>
</g>
<defs>
<clipPath id="clip0_3701_28389">
<rect width="24" height="24" fill="white"/>
</clipPath>
</defs>
</svg>
