<svg width="24" height="24" viewBox="0 0 24 24" fill="none" xmlns="http://www.w3.org/2000/svg">
<path fill-rule="evenodd" clip-rule="evenodd" d="M20.8309 0H23.9599C23.9821 0 24 0.0179352 24 0.0400594V1.25964C24 1.28177 23.9821 1.2997 23.9599 1.2997H23.3501V5.29229H23.9599C23.9821 5.29229 24 5.31022 24 5.33234V5.83086C24 5.85298 23.9821 5.87092 23.9599 5.87092H23.3501V16.5585L23.3991 16.5801V17.1677L23.3501 17.1464V17.9253L23.3991 17.9466V18.5386L23.3501 18.517V19.2959L23.3991 19.3175V19.905L23.3501 19.8838V20.6627L23.3991 20.684V20.9065H23.5282H23.7596L23.7622 20.9973L23.8264 21.0223L23.8309 21.2136L23.7676 21.1891L23.7764 21.4986L23.8398 21.5208L23.8442 21.7122L23.7818 21.6903L23.7888 21.9393L23.8531 21.9614L23.8576 22.1528L23.7942 22.1312L23.8014 22.3845L23.8665 22.4065L23.8754 22.5979L23.8067 22.5748L23.8138 22.8252L23.8798 22.8472L23.8887 23.0386L23.8192 23.0157L23.822 23.1142L23.0608 23.27L22.2997 23.1142L22.304 22.9612L22.2374 22.9407L22.2463 22.7493L22.3095 22.7689L22.3164 22.5216L22.2507 22.5L22.2596 22.3086L22.3219 22.3293L22.329 22.0768L22.2641 22.0549L22.273 21.868L22.3343 21.8887L22.3415 21.6346L22.2819 21.6142L22.2864 21.4228L22.3469 21.4436L22.354 21.1897L22.2953 21.1691L22.2997 20.9822L22.3593 21.003L22.362 20.9065H22.7225V20.3902L22.776 20.4134V19.6345L22.7225 19.6113V19.0193L22.776 19.0428V18.2639L22.7225 18.2404V17.6528L22.776 17.676V16.8971L22.7225 16.8739V16.2819L22.776 16.3054V5.87092H21.7745V18.2448C21.7745 18.3383 21.6988 18.4139 21.6053 18.4139H21.1291C21.0356 18.4139 20.9599 18.3383 20.9599 18.2448V18.1647H13.7493V18.1602H0.155786C0.0697479 18.1602 0 18.0905 0 18.0044V12.7033C0 12.6172 0.0697479 12.5475 0.155786 12.5475H1.6076C1.62397 12.2191 1.89769 11.9555 2.22997 11.9555H5.1454C5.482 11.9555 5.75166 12.2191 5.76778 12.5475H6.70326V10.1261C6.70326 10.0727 6.73442 10.0282 6.77003 10.0282H7.31305C7.34866 10.0282 7.37982 10.0727 7.37982 10.1261V12.5475H10.135C10.1128 12.5475 10.095 12.5297 10.095 12.503L10.273 8.15875C10.273 8.1365 10.2953 8.11869 10.3175 8.11869H16.0772C16.0994 8.11869 16.1217 8.1365 16.1306 8.15875L17.1878 12.5407L20.9599 9.73125V5.87092H20.8309C20.8087 5.87092 20.7908 5.85298 20.7908 5.83086V5.33234C20.7908 5.31022 20.8087 5.29229 20.8309 5.29229H20.9599V1.2997H20.8309C20.8087 1.2997 20.7908 1.28177 20.7908 1.25964V0.0400594C20.7908 0.0179352 20.8087 0 20.8309 0ZM21.7745 1.2997H22.776V5.29229H21.7745V1.2997ZM20.9599 17.4258V12.2199L17.2211 15.0001V17.4258H20.9599ZM15.6026 8.72031C15.6228 8.72031 15.6429 8.73812 15.651 8.76037L16.5062 12.4325C16.5103 12.4547 16.4982 12.4725 16.478 12.4725H14.3186H13.8316H10.7555C10.721 12.4725 10.6934 12.4547 10.6934 12.4325L10.9489 8.76037C10.9489 8.73812 10.9834 8.72031 11.0179 8.72031H13.8316H14.3186H15.6026Z" fill="#054F31"/>
<path d="M3.84616 21.2512C3.84616 22.2842 3.00586 23.1245 1.97289 23.1245C0.939908 23.1245 0.0996094 22.2842 0.0996094 21.2512C0.0996094 20.2182 0.939908 19.3779 1.97289 19.3779C3.00586 19.3779 3.84616 20.2182 3.84616 21.2512Z" fill="#054F31"/>
<path d="M20.6411 21.2512C20.6411 22.2842 19.8008 23.1245 18.7678 23.1245C17.7348 23.1245 16.8945 22.2842 16.8945 21.2512C16.8945 20.2182 17.7348 19.3779 18.7678 19.3779C19.8008 19.3779 20.6411 20.2182 20.6411 21.2512Z" fill="#054F31"/>
<path d="M18.954 19.3779H1.65723V19.8319H18.954V19.3779Z" fill="#054F31"/>
<path d="M5.22644 22.6005C5.22644 22.4314 5.0929 22.2979 4.92376 22.2979C4.75462 22.2979 4.62109 22.4358 4.62109 22.6005C4.62109 22.7652 4.75908 22.9032 4.92376 22.9032C5.08845 22.9032 5.22644 22.7652 5.22644 22.6005Z" fill="#054F31"/>
<path d="M5.22644 19.8749C5.22644 19.7058 5.0929 19.5723 4.92376 19.5723C4.75462 19.5723 4.62109 19.7102 4.62109 19.8749C4.62109 20.0396 4.75908 20.1776 4.92376 20.1776C5.08845 20.1776 5.22644 20.0396 5.22644 19.8749Z" fill="#054F31"/>
<path d="M6.85143 22.6005C6.85143 22.4314 6.71345 22.2979 6.54876 22.2979C6.38408 22.2979 6.24609 22.4358 6.24609 22.6005C6.24609 22.7652 6.37963 22.9032 6.54876 22.9032C6.7179 22.9032 6.85143 22.7652 6.85143 22.6005Z" fill="#054F31"/>
<path d="M6.85143 19.8749C6.85143 19.7058 6.71345 19.5723 6.54876 19.5723C6.38408 19.5723 6.24609 19.7102 6.24609 19.8749C6.24609 20.0396 6.37963 20.1776 6.54876 20.1776C6.7179 20.1776 6.85143 20.0396 6.85143 19.8749Z" fill="#054F31"/>
<path d="M8.47643 22.6005C8.47643 22.4314 8.3429 22.2979 8.17376 22.2979C8.00462 22.2979 7.87109 22.4358 7.87109 22.6005C7.87109 22.7652 8.00907 22.9032 8.17376 22.9032C8.33845 22.9032 8.47643 22.7652 8.47643 22.6005Z" fill="#054F31"/>
<path d="M8.47643 19.8749C8.47643 19.7058 8.3429 19.5723 8.17376 19.5723C8.00462 19.5723 7.87109 19.7102 7.87109 19.8749C7.87109 20.0396 8.00907 20.1776 8.17376 20.1776C8.33845 20.1776 8.47643 20.0396 8.47643 19.8749Z" fill="#054F31"/>
<path d="M10.1014 22.6005C10.1014 22.4314 9.96345 22.2979 9.79876 22.2979C9.63407 22.2979 9.49609 22.4358 9.49609 22.6005C9.49609 22.7652 9.62962 22.9032 9.79876 22.9032C9.9679 22.9032 10.1014 22.7652 10.1014 22.6005Z" fill="#054F31"/>
<path d="M10.1014 19.8749C10.1014 19.7058 9.96345 19.5723 9.79876 19.5723C9.63407 19.5723 9.49609 19.7102 9.49609 19.8749C9.49609 20.0396 9.62962 20.1776 9.79876 20.1776C9.9679 20.1776 10.1014 20.0396 10.1014 19.8749Z" fill="#054F31"/>
<path d="M11.7255 22.6005C11.7255 22.4314 11.5875 22.2979 11.4228 22.2979C11.2581 22.2979 11.1201 22.4358 11.1201 22.6005C11.1201 22.7652 11.2581 22.9032 11.4228 22.9032C11.5875 22.9032 11.7255 22.7652 11.7255 22.6005Z" fill="#054F31"/>
<path d="M11.7255 19.8749C11.7255 19.7058 11.5875 19.5723 11.4228 19.5723C11.2581 19.5723 11.1201 19.7102 11.1201 19.8749C11.1201 20.0396 11.2581 20.1776 11.4228 20.1776C11.5875 20.1776 11.7255 20.0396 11.7255 19.8749Z" fill="#054F31"/>
<path d="M13.3495 22.6005C13.3495 22.4314 13.2115 22.2979 13.0468 22.2979C12.8821 22.2979 12.7441 22.4358 12.7441 22.6005C12.7441 22.7652 12.8821 22.9032 13.0468 22.9032C13.2115 22.9032 13.3495 22.7652 13.3495 22.6005Z" fill="#054F31"/>
<path d="M13.3495 19.8749C13.3495 19.7058 13.2115 19.5723 13.0468 19.5723C12.8821 19.5723 12.7441 19.7102 12.7441 19.8749C12.7441 20.0396 12.8821 20.1776 13.0468 20.1776C13.2115 20.1776 13.3495 20.0396 13.3495 19.8749Z" fill="#054F31"/>
<path d="M14.9745 22.6005C14.9745 22.4314 14.8365 22.2979 14.6718 22.2979C14.5071 22.2979 14.3691 22.4358 14.3691 22.6005C14.3691 22.7652 14.5071 22.9032 14.6718 22.9032C14.8365 22.9032 14.9745 22.7652 14.9745 22.6005Z" fill="#054F31"/>
<path d="M14.9745 19.8749C14.9745 19.7058 14.8365 19.5723 14.6718 19.5723C14.5071 19.5723 14.3691 19.7102 14.3691 19.8749C14.3691 20.0396 14.5071 20.1776 14.6718 20.1776C14.8365 20.1776 14.9745 20.0396 14.9745 19.8749Z" fill="#054F31"/>
<path d="M16.5994 22.6005C16.5994 22.4314 16.4614 22.2979 16.2967 22.2979C16.132 22.2979 15.9941 22.4358 15.9941 22.6005C15.9941 22.7652 16.132 22.9032 16.2967 22.9032C16.4614 22.9032 16.5994 22.7652 16.5994 22.6005Z" fill="#054F31"/>
<path d="M16.5994 19.8749C16.5994 19.7058 16.4614 19.5723 16.2967 19.5723C16.132 19.5723 15.9941 19.7102 15.9941 19.8749C15.9941 20.0396 16.132 20.1776 16.2967 20.1776C16.4614 20.1776 16.5994 20.0396 16.5994 19.8749Z" fill="#054F31"/>
<path d="M18.954 22.667H1.65723V23.1388H18.954V22.667Z" fill="#054F31"/>
</svg>
