<svg width="24" height="24" viewBox="0 0 24 24" fill="none" xmlns="http://www.w3.org/2000/svg">
<g clip-path="url(#clip0_3701_28418)">
<path d="M20.981 10.8058L22.3627 11.2154V5.89342H17.0915L12.5114 13.8253V15.0022H1.02344V9.52679L2.63532 9.90335V5.97014H8.04525L9.06456 11.4055L11.9743 12.0854L16.3756 4H24V16.8957L19.1384 17.356L16.7332 14.8995H18.2684L20.981 10.8058ZM7.40841 6.73743H3.40319V10.0822L8.24828 11.2142L7.40899 6.73743H7.40841Z" fill="#AAAAAA"/>
<path d="M1.86804 15.4043H11.4372C12.4672 15.4043 13.3053 16.2424 13.3053 17.2723C13.3053 18.3023 12.4672 19.1398 11.4372 19.1398H1.86804C0.838108 19.1398 0 18.3017 0 17.2723C0 16.243 0.838108 15.4043 1.86804 15.4043ZM1.86804 18.526H3.12166V17.6483H3.42857V18.526H4.65681V17.6483H5.27064V18.526H6.34543V17.6483H6.95925V18.526H8.03404V17.6483H8.64786V18.526H9.8761V17.6483H10.183V18.526H11.4366C12.1278 18.526 12.6903 17.9635 12.6903 17.2723C12.6903 16.5812 12.1278 16.0187 11.4366 16.0187H10.183V16.7429H9.8761V16.0187H8.64786V16.8964H8.03404V16.0187H6.95925V16.8964H6.34543V16.0187H5.27064V16.8964H4.65681V16.0187H3.42857V16.7429H3.12166V16.0187H1.86804C1.17689 16.0187 0.614416 16.5812 0.614416 17.2723C0.614416 17.9635 1.17689 18.526 1.86804 18.526Z" fill="#AAAAAA"/>
<path d="M11.4459 17.8049C11.1359 17.7349 10.9413 17.4268 11.0113 17.1168C11.0812 16.8068 11.3893 16.6122 11.6993 16.6822C12.0093 16.7522 12.2039 17.0602 12.1339 17.3702C12.064 17.6803 11.7559 17.8748 11.4459 17.8049Z" fill="#AAAAAA"/>
<path d="M1.36101 17.6781C1.11884 17.4722 1.08936 17.1091 1.29518 16.8669C1.50099 16.6247 1.86416 16.5953 2.10634 16.8011C2.34851 17.0069 2.37799 17.37 2.17217 17.6122C1.96635 17.8544 1.60319 17.8839 1.36101 17.6781Z" fill="#AAAAAA"/>
</g>
<defs>
<clipPath id="clip0_3701_28418">
<rect width="24" height="24" fill="white"/>
</clipPath>
</defs>
</svg>
