<svg width="25" height="24" viewBox="0 0 25 24" fill="none" xmlns="http://www.w3.org/2000/svg">
<path d="M21.2678 15.1565L17.3985 9.92188H12.2757V15.9467H0.802734L1.65641 19.7473H3.24202C3.32677 18.214 4.50019 16.9946 5.94943 16.9946C7.39867 16.9946 8.56901 18.214 8.65607 19.7464H14.0116C14.0963 18.214 15.2697 16.9946 16.7182 16.9946C18.1667 16.9946 19.3378 18.214 19.4248 19.7464H21.2678V15.1565ZM13.6402 15.3256V11.1307H17.0302L19.8039 15.3256H13.6402Z" fill="#AAAAAA"/>
<path d="M5.94854 17.8359C5.55822 17.8358 5.17662 17.9578 4.85202 18.1865C4.52742 18.4152 4.27439 18.7403 4.12496 19.1208C3.97552 19.5013 3.93638 19.92 4.01249 20.3239C4.0886 20.7278 4.27654 21.0989 4.55253 21.3901C4.82853 21.6813 5.18019 21.8796 5.56301 21.9599C5.94584 22.0402 6.34264 21.9989 6.70322 21.8413C7.0638 21.6836 7.37195 21.4166 7.58871 21.0741C7.80546 20.7316 7.92108 20.3289 7.92093 19.9171C7.92072 19.3652 7.71285 18.836 7.343 18.4457C6.97315 18.0555 6.47159 17.8362 5.94854 17.8359ZM5.94854 20.8748C5.76883 20.8749 5.59313 20.8188 5.44369 20.7135C5.29425 20.6082 5.17781 20.4584 5.10911 20.2832C5.04041 20.108 5.02255 19.9152 5.0578 19.7293C5.09305 19.5433 5.17981 19.3726 5.30709 19.2388C5.43438 19.1049 5.59646 19.014 5.77279 18.9774C5.94912 18.9409 6.13177 18.9604 6.29759 19.0334C6.46341 19.1065 6.60494 19.2299 6.70424 19.3879C6.80354 19.546 6.85614 19.7316 6.85537 19.9212C6.85456 20.1744 6.75866 20.4169 6.58868 20.5957C6.4187 20.7744 6.18851 20.8748 5.94854 20.8748Z" fill="#AAAAAA"/>
<path d="M16.72 17.8359C16.3299 17.8358 15.9484 17.9577 15.6239 18.1862C15.2994 18.4147 15.0464 18.7396 14.8968 19.1199C14.7473 19.5001 14.7079 19.9186 14.7837 20.3224C14.8595 20.7262 15.047 21.0973 15.3227 21.3887C15.5983 21.68 15.9496 21.8787 16.3321 21.9594C16.7147 22.0402 17.1114 21.9995 17.472 21.8424C17.8327 21.6854 18.1411 21.419 18.3583 21.0771C18.5755 20.7351 18.6918 20.3328 18.6924 19.9212C18.6929 19.6475 18.6423 19.3765 18.5434 19.1235C18.4445 18.8705 18.2993 18.6406 18.1161 18.4469C17.9329 18.2532 17.7153 18.0996 17.4757 17.9947C17.2362 17.8899 16.9794 17.8359 16.72 17.8359ZM16.72 20.8748C16.5403 20.8748 16.3647 20.8185 16.2154 20.7131C16.066 20.6077 15.9497 20.4579 15.8811 20.2826C15.8126 20.1074 15.7948 19.9147 15.8301 19.7288C15.8655 19.5429 15.9523 19.3723 16.0796 19.2385C16.2069 19.1047 16.369 19.0138 16.5453 18.9774C16.7216 18.9409 16.9042 18.9604 17.07 19.0335C17.2358 19.1066 17.3773 19.23 17.4765 19.388C17.5758 19.546 17.6284 19.7316 17.6276 19.9212C17.6268 20.1745 17.5308 20.4172 17.3607 20.5959C17.1905 20.7747 16.9601 20.875 16.72 20.8748Z" fill="#AAAAAA"/>
<path d="M2.45195 9.58789L0.802734 10.2624L1.09712 11.0365H2.45195V9.58789Z" fill="#AAAAAA"/>
<path d="M3.30026 11.8903H0.814453V14.4949H8.20514V12.9953H7.26209V10.0083L5.96538 8.16406H3.30026V11.8903Z" fill="#AAAAAA"/>
<path fill-rule="evenodd" clip-rule="evenodd" d="M24.8025 3.43793C24.8025 4.07609 24.4038 4.61716 23.852 4.80509V10.4427H24.794V12.3469H24.8038L24.794 12.3626V12.3631H24.7937L24.3039 13.1464H22.7952L22.2553 12.3631H22.2383V10.4427H23.2109V4.85889C23.1187 4.84401 23.0295 4.81962 22.9443 4.78669L8.29165 9.66263L6.7207 7.8555L22.1096 2.8992L22.1293 2.94016C22.3236 2.39133 22.8297 2 23.4235 2C24.1851 2 24.8025 2.64378 24.8025 3.43793ZM23.8488 13.1484L23.3583 13.1529C23.3545 13.3184 23.3406 13.4046 23.2982 13.5029C23.2286 13.6641 23.1147 13.7699 23.0039 13.8728C22.9449 13.9277 22.8868 13.9817 22.8367 14.0428C22.6102 14.3185 22.5054 14.5943 22.6102 14.9357C22.9083 15.8581 24.2704 15.9865 24.6949 15.1468C24.7686 14.9112 24.7833 14.66 24.7377 14.4168L24.7372 14.4137C24.7176 14.2902 24.6644 13.9559 24.5233 13.934C24.407 13.916 24.3713 14.1643 24.3506 14.3083C24.346 14.3406 24.3421 14.3676 24.3382 14.3852C24.2829 14.6344 24.18 14.8991 23.9944 15.0084C23.7877 15.1297 23.4507 15.0259 23.3694 14.7888C23.3204 14.6459 23.3574 14.471 23.4247 14.314C23.4914 14.1586 23.5598 14.053 23.6217 13.9575C23.7491 13.7607 23.8488 13.6069 23.8488 13.1484Z" fill="#AAAAAA"/>
</svg>
