<svg width="10" height="10" viewBox="0 0 10 10" fill="none" xmlns="http://www.w3.org/2000/svg">
<path d="M9 0H1C0.447715 0 0 0.447715 0 1V9C0 9.55229 0.447715 10 1 10H9C9.55229 10 10 9.55229 10 9V1C10 0.447715 9.55229 0 9 0Z" fill="#AAAAAA"/>
<path d="M5.12286 6.15285L5.30059 5.95504L5.22159 5.87592L2.99009 8.11118C2.69388 8.40787 2.20019 8.40787 1.90398 8.11118C1.588 7.79467 1.588 7.30014 1.90398 7.00344L4.11573 4.76816L3.0493 3.7L2.91107 3.83845L1.98296 2.77029L2.4569 2.29554L3.52328 3.22525L3.38505 3.34394L4.47119 4.43189L4.86615 4.03627C4.64892 3.40328 4.78715 2.69117 5.28084 2.17685C5.75478 1.7021 6.44596 1.56362 7.0384 1.74168C7.09765 1.74168 7.13713 1.78125 7.13713 1.84058C7.15688 1.89992 7.13713 1.93949 7.09765 1.97904L5.99177 3.10658C5.91279 3.1857 5.91279 3.28461 5.99177 3.36383L6.62369 3.99662C6.70269 4.07574 6.82117 4.07574 6.88047 3.99662L8.00598 2.88889C8.04549 2.84931 8.08499 2.82953 8.14424 2.84931C8.20347 2.84931 8.24297 2.88889 8.26272 2.94822C8.44045 3.56142 8.28247 4.23398 7.80853 4.70873C7.29508 5.20326 6.58416 5.3615 5.95222 5.14388L5.55728 5.53951L5.65601 5.61863L5.83374 5.44072C5.87324 5.38139 5.97197 5.38139 6.03122 5.44072L7.82825 7.2408C8.08504 7.47817 8.08504 7.89358 7.82825 8.15073C7.7046 8.26519 7.54243 8.32877 7.37406 8.32877C7.2057 8.32877 7.04353 8.26519 6.91987 8.15073L5.12281 6.33079C5.06361 6.29131 5.06361 6.1924 5.12286 6.15285Z" fill="white"/>
</svg>
