<svg width="24" height="24" viewBox="0 0 24 24" fill="none" xmlns="http://www.w3.org/2000/svg">
<g clip-path="url(#clip0_3701_28336)">
<path fill-rule="evenodd" clip-rule="evenodd" d="M10.1089 11.2276C10.2701 11.2276 10.4315 11.2715 10.5659 11.3419V4.11812H11.1036L13.4337 11.9833H13.9803L11.5965 3.91598L11.5069 3.59961H4.36426V11.2276H4.90193V4.11812H10.0013V11.2276H10.1089Z" fill="#054F31"/>
<path fill-rule="evenodd" clip-rule="evenodd" d="M0.976868 14.5652V13.2559H0.708001C0.313667 13.2559 0 13.5634 0 13.9501V15.778C0.215067 15.2946 0.555601 14.8816 0.976868 14.5652Z" fill="#054F31"/>
<path fill-rule="evenodd" clip-rule="evenodd" d="M14.7786 12.2469H10.8085V12.1854C10.8085 11.8076 10.4951 11.4912 10.1095 11.4912H3.11015C2.72475 11.4912 2.41109 11.8076 2.41109 12.1854V12.2469H1.94509C1.55975 12.2469 1.24609 12.5633 1.24609 12.9412V14.3829C1.73345 14.0902 2.2951 13.935 2.86815 13.9346C4.59782 13.9346 5.99589 15.3144 5.99589 17.0017C5.99518 17.4697 5.88808 17.9318 5.68223 18.355H14.5545C13.9899 17.5289 13.6583 16.5271 13.6583 15.455C13.6583 14.2508 14.0795 13.1347 14.7786 12.2469ZM5.55676 14.2419H5.07282V11.8342H5.55676V14.2419ZM8.6665 13.4862H7.55523C7.42983 13.4862 7.32189 13.3808 7.32189 13.2489C7.32189 13.126 7.42949 13.0204 7.55523 13.0204H8.6665C8.79203 13.0204 8.89983 13.1259 8.89983 13.2489C8.89956 13.3808 8.79203 13.4862 8.6665 13.4862ZM10.7009 18.0472H10.217V12.8095H10.7009V18.0472Z" fill="#054F31"/>
<path fill-rule="evenodd" clip-rule="evenodd" d="M13.9189 15.4362C13.9189 12.7289 16.1778 10.5137 18.9807 10.5137C21.7415 10.5137 24.0005 12.7292 24.0005 15.4362C24.0005 18.1846 21.7415 20.3998 18.9807 20.3998C16.1778 20.3998 13.9189 18.1855 13.9189 15.4362ZM15.6185 15.4436C15.6185 13.6487 17.1161 12.1801 18.9743 12.1801C20.8047 12.1801 22.3024 13.6489 22.3024 15.4436C22.3024 17.2658 20.8047 18.7344 18.9743 18.7344C17.1161 18.7344 15.6185 17.2664 15.6185 15.4436Z" fill="#054F31"/>
<path fill-rule="evenodd" clip-rule="evenodd" d="M0.0175781 16.9572C0.0175781 15.4482 1.2591 14.1826 2.84701 14.1826C4.43566 14.1826 5.7263 15.4482 5.72741 16.9572C5.72741 18.5147 4.43566 19.7806 2.84701 19.7806C1.25837 19.7806 0.0175781 18.5147 0.0175781 16.9572ZM1.38047 16.9705C1.38047 16.1821 2.02912 15.5209 2.85873 15.5209C3.68874 15.5209 4.36304 16.1821 4.36362 16.9705C4.36362 17.7842 3.68874 18.4456 2.85873 18.4456C2.02873 18.4456 1.38047 17.7842 1.38047 16.9705Z" fill="#054F31"/>
<path fill-rule="evenodd" clip-rule="evenodd" d="M4.09574 7.6709H3.79101C3.40568 7.6709 3.08301 7.98727 3.08301 8.36514V11.23H4.09574V7.6709Z" fill="#054F31"/>
</g>
<defs>
<clipPath id="clip0_3701_28336">
<rect width="24" height="24" fill="white"/>
</clipPath>
</defs>
</svg>
