<svg width="10" height="10" viewBox="0 0 10 10" fill="none" xmlns="http://www.w3.org/2000/svg">
<path d="M9 0H1C0.447715 0 0 0.447715 0 1V9C0 9.55229 0.447715 10 1 10H9C9.55229 10 10 9.55229 10 9V1C10 0.447715 9.55229 0 9 0Z" fill="#D92D20"/>
<path d="M4.36814 2.28809C5.12014 2.28809 5.67481 2.42676 6.03214 2.70409C6.39481 2.98142 6.57614 3.40276 6.57614 3.96809C6.57614 4.24542 6.52281 4.48276 6.41614 4.68009C6.31481 4.87742 6.17881 5.04276 6.00814 5.17609C5.84281 5.30409 5.66681 5.40809 5.48014 5.48809L7.12014 8.00009H5.96814L4.60014 5.74409H3.76814V8.00009H2.74414V2.28809H4.36814ZM4.30414 3.14409H3.76814V4.90409H4.33614C4.76281 4.90409 5.06947 4.82942 5.25614 4.68009C5.44281 4.52542 5.53614 4.29876 5.53614 4.00009C5.53614 3.69076 5.43481 3.47209 5.23214 3.34409C5.03481 3.21076 4.72547 3.14409 4.30414 3.14409Z" fill="white"/>
</svg>
