<svg width="24" height="24" viewBox="0 0 24 24" fill="none" xmlns="http://www.w3.org/2000/svg">
<g clip-path="url(#clip0_3701_28277)">
<path fill-rule="evenodd" clip-rule="evenodd" d="M9.28795 13.6155L9.48895 12.1514H9.11328V13.6155H9.28795Z" fill="#D92D20"/>
<path fill-rule="evenodd" clip-rule="evenodd" d="M10.5371 13.6155H10.7468L10.9478 12.1514H10.7381L10.5371 13.6155Z" fill="#D92D20"/>
<path fill-rule="evenodd" clip-rule="evenodd" d="M11.9961 13.6155H12.2144L12.4154 12.1514H12.197L11.9961 13.6155Z" fill="#D92D20"/>
<path d="M5.4089 12.1514H4.88477V13.6155H5.4089V12.1514Z" fill="#D92D20"/>
<path fill-rule="evenodd" clip-rule="evenodd" d="M15.3423 12.1514H15.1326L14.9316 13.6155H15.1414L15.3423 12.1514Z" fill="#D92D20"/>
<path fill-rule="evenodd" clip-rule="evenodd" d="M13.6813 13.6155L13.8822 12.1514H13.6638L13.4629 13.6155H13.6813Z" fill="#D92D20"/>
<path d="M3.53845 12.1514H2.12305V13.6155H3.53845V12.1514Z" fill="#D92D20"/>
<path fill-rule="evenodd" clip-rule="evenodd" d="M16.6528 13.6155V12.1514H16.5916L16.3906 13.6155H16.6528Z" fill="#D92D20"/>
<path fill-rule="evenodd" clip-rule="evenodd" d="M8.8511 8.48981C8.8511 7.98226 9.2355 7.56254 9.6811 7.56254H10.8078V4H9.6811C7.47943 4 5.6709 6.02044 5.6709 8.48981V15.2733H8.8509L8.8511 8.48981Z" fill="#D92D20"/>
<path fill-rule="evenodd" clip-rule="evenodd" d="M11.2353 8.05055H12.3624C12.4497 8.05055 12.5197 7.9628 12.5197 7.86517V4H11.0693V7.86517C11.0692 7.88939 11.0734 7.91341 11.0817 7.93584C11.09 7.95828 11.1022 7.97868 11.1176 7.9959C11.133 8.01312 11.1513 8.02681 11.1715 8.03618C11.1917 8.04556 11.2134 8.05044 11.2353 8.05055Z" fill="#D92D20"/>
<path fill-rule="evenodd" clip-rule="evenodd" d="M16.9142 8.48981V15.2733H20.103V8.48981C20.103 6.02044 18.2946 4 16.0842 4H14.9658V7.56254H16.0842C16.5384 7.56254 16.9142 7.98226 16.9142 8.48981Z" fill="#D92D20"/>
<path fill-rule="evenodd" clip-rule="evenodd" d="M13.4101 8.05055H14.5373C14.6246 8.05055 14.7033 7.9628 14.7033 7.86517V4H13.2441V7.86517C13.2441 7.9628 13.3228 8.05055 13.4101 8.05055Z" fill="#D92D20"/>
<path fill-rule="evenodd" clip-rule="evenodd" d="M23.4328 15.5713H5.27777C4.96324 15.5713 4.70117 15.8641 4.70117 16.2155V19.3681C4.70117 19.7194 4.96324 20.0023 5.27777 20.0023H23.4328C23.7474 20.0023 24.0008 19.7191 24.0008 19.3681V16.2155C24.0008 15.8641 23.7474 15.5713 23.4328 15.5713Z" fill="#D92D20"/>
<path fill-rule="evenodd" clip-rule="evenodd" d="M3.80078 11.7177V14.0404C3.80078 14.1185 3.86191 14.1869 3.93185 14.1869H4.62198V11.5713H3.93185C3.86191 11.5713 3.80078 11.6396 3.80078 11.7177Z" fill="#D92D20"/>
<path fill-rule="evenodd" clip-rule="evenodd" d="M13.918 13.8302H14.6344C14.7218 13.1956 14.8091 12.571 14.8965 11.9463H14.1713C14.084 12.571 14.0054 13.1956 13.918 13.8302Z" fill="#D92D20"/>
<path fill-rule="evenodd" clip-rule="evenodd" d="M15.377 13.8301H16.1021L16.3554 11.9463H15.639L15.377 13.8301Z" fill="#D92D20"/>
<path fill-rule="evenodd" clip-rule="evenodd" d="M10.2398 13.8301L10.5019 11.9463H9.77677L9.52344 13.8301H10.2398Z" fill="#D92D20"/>
<path fill-rule="evenodd" clip-rule="evenodd" d="M11.961 11.9463H11.2444C11.1571 12.571 11.0698 13.1956 10.9824 13.8302H11.7075C11.7949 13.1956 11.8736 12.571 11.961 11.9463Z" fill="#D92D20"/>
<path fill-rule="evenodd" clip-rule="evenodd" d="M13.166 13.8302C13.2533 13.1956 13.3406 12.571 13.428 11.9463H12.7113C12.624 12.571 12.5366 13.1956 12.4492 13.8302H13.166Z" fill="#D92D20"/>
<path fill-rule="evenodd" clip-rule="evenodd" d="M1.86145 17.1483V8.61728C1.97877 8.54185 2.07606 8.43358 2.14354 8.30336C2.21102 8.17314 2.2463 8.02556 2.24585 7.87547C2.24585 7.40701 1.90511 7.02637 1.48585 7.02637C1.06658 7.02637 0.734379 7.40738 0.734379 7.87547C0.73393 8.02557 0.769226 8.17315 0.836718 8.30338C0.904209 8.4336 1.00151 8.54186 1.11885 8.61728V17.1483C1.00153 17.2237 0.904233 17.3319 0.836743 17.4622C0.769253 17.5924 0.733948 17.7399 0.734379 17.89C0.734379 18.3585 1.06638 18.7393 1.48578 18.7393C1.90518 18.7393 2.24578 18.3585 2.24578 17.89C2.24623 17.7399 2.21095 17.5924 2.14348 17.4622C2.07602 17.332 1.97874 17.2237 1.86145 17.1483Z" fill="#D92D20"/>
<path fill-rule="evenodd" clip-rule="evenodd" d="M0.8562 12.4639H0.375667C0.166 12.4639 0 12.6493 0 12.8835C0 13.1177 0.166 13.3033 0.375667 13.3033H0.8562V12.4639Z" fill="#D92D20"/>
</g>
<defs>
<clipPath id="clip0_3701_28277">
<rect width="24" height="24" fill="white"/>
</clipPath>
</defs>
</svg>
