<svg width="24" height="24" viewBox="0 0 24 24" fill="none" xmlns="http://www.w3.org/2000/svg">
<path d="M23.9996 12.5797L20.2146 7.66895H15.2034V13.321H3.98047L4.81554 16.8864H6.3666C6.4495 15.448 7.59735 14.304 9.01501 14.304C10.4327 14.304 11.5775 15.448 11.6627 16.8856H16.9015C16.9844 15.448 18.1322 14.304 19.5491 14.304C20.966 14.304 22.1116 15.448 22.1968 16.8856H23.9996V12.5797ZM16.5382 12.7383V8.80301H19.8544L22.5676 12.7383H16.5382Z" fill="#054F31"/>
<path d="M9.0149 15.0938C8.63308 15.0936 8.2598 15.208 7.94228 15.4226C7.62475 15.6372 7.37724 15.9422 7.23105 16.2991C7.08487 16.656 7.04658 17.0487 7.12104 17.4277C7.19549 17.8066 7.37933 18.1548 7.64932 18.428C7.9193 18.7012 8.26329 18.8872 8.63777 18.9626C9.01226 19.0379 9.40041 18.9992 9.75313 18.8512C10.1059 18.7033 10.4073 18.4529 10.6193 18.1315C10.8314 17.8102 10.9445 17.4325 10.9443 17.0461C10.9441 16.5284 10.7408 16.0319 10.379 15.6658C10.0172 15.2997 9.52655 15.094 9.0149 15.0938ZM9.0149 17.9445C8.83911 17.9446 8.66724 17.892 8.52105 17.7932C8.37487 17.6944 8.26096 17.554 8.19376 17.3896C8.12656 17.2252 8.10909 17.0444 8.14357 16.8699C8.17805 16.6955 8.26292 16.5354 8.38743 16.4098C8.51195 16.2842 8.67049 16.1989 8.84298 16.1646C9.01547 16.1303 9.19414 16.1485 9.35635 16.2171C9.51855 16.2856 9.657 16.4015 9.75413 16.5497C9.85126 16.698 9.90272 16.872 9.90197 17.0499C9.90117 17.2874 9.80736 17.5149 9.64109 17.6826C9.47482 17.8503 9.24964 17.9445 9.0149 17.9445Z" fill="#054F31"/>
<path d="M19.5501 15.0938C19.1684 15.0936 18.7953 15.2079 18.4778 15.4223C18.1604 15.6367 17.9129 15.9415 17.7666 16.2982C17.6203 16.6549 17.5818 17.0474 17.6559 17.4263C17.7301 17.8051 17.9135 18.1533 18.1831 18.4266C18.4527 18.7 18.7964 18.8862 19.1706 18.962C19.5449 19.0378 19.9329 18.9997 20.2857 18.8523C20.6385 18.705 20.9402 18.4551 21.1527 18.1343C21.3651 17.8135 21.4789 17.4361 21.4795 17.0499C21.48 16.7931 21.4304 16.539 21.3337 16.3016C21.2369 16.0643 21.0949 15.8486 20.9157 15.6669C20.7365 15.4852 20.5236 15.3411 20.2893 15.2427C20.0549 15.1444 19.8037 15.0937 19.5501 15.0938ZM19.5501 17.9445C19.3743 17.9444 19.2025 17.8918 19.0564 17.7929C18.9103 17.694 18.7965 17.5533 18.7295 17.389C18.6624 17.2246 18.645 17.0437 18.6796 16.8694C18.7141 16.695 18.7991 16.535 18.9236 16.4095C19.0481 16.284 19.2067 16.1987 19.3792 16.1644C19.5516 16.1302 19.7303 16.1485 19.8924 16.2171C20.0546 16.2857 20.193 16.4016 20.2901 16.5498C20.3872 16.698 20.4386 16.872 20.4379 17.0499C20.4371 17.2875 20.3432 17.5153 20.1767 17.683C20.0103 17.8507 19.7849 17.9447 19.5501 17.9445Z" fill="#054F31"/>
<path d="M14.16 6.82198H18.0226C18.0226 6.82198 18.0226 5.4492 16.8861 5H14.1231C13.9437 4.99983 13.769 5.05813 13.6249 5.16626L12.2284 6.21491L1.18855 6.45286L0.0452243 8.09104C0.0140684 8.13617 -0.00174943 8.19033 0.000153653 8.24535C0.00205674 8.30037 0.0215777 8.35328 0.0557757 8.3961L3.38099 12.5274H14.1585L14.16 6.82198ZM5.78219 11.3384H4.76398V8.80336H5.78219V11.3384ZM8.49542 11.3384H7.45233V8.16959H8.49617L8.49542 11.3384ZM11.1838 11.3384H10.1663V7.42982H11.1838V11.3384Z" fill="#054F31"/>
</svg>
