<svg xmlns="http://www.w3.org/2000/svg" width="512" height="512" fill="gray"  style="enable-background:new 0 0 512 512" viewBox="0 0 96 96">
  <path xmlns="http://www.w3.org/2000/svg" d="m60.73 14.21-4.12 15.67-.77 2.94H40.16l-4.89-18.61 2.16-2.16 2.73-2.73h15.68z" data-original="#f6b756"/>
  <path xmlns="http://www.w3.org/2000/svg" d="m60.73 14.21-4.12 15.67H42.12l-4.69-17.83 2.73-2.74h15.68z" data-original="#fac77d"/>
  <circle xmlns="http://www.w3.org/2000/svg" cx="43.1" cy="16.17" r="2.94" data-original="#8288a1"/>
  <path xmlns="http://www.w3.org/2000/svg" d="m56.81 14.21-4.12 15.67h-2.94l4.13-15.67-4.9-4.9h2.94z" data-original="#ffd69e"/>
  <circle xmlns="http://www.w3.org/2000/svg" cx="52.9" cy="16.17" r="2.94" data-original="#8288a1"/>
  <path xmlns="http://www.w3.org/2000/svg" d="M87.18 76.89a5.88 5.88 0 0 1-5.88 5.88H14.7V71h66.6a5.8 5.8 0 0 1 4.15 1.72A5.72 5.72 0 0 1 87 75.43a5.9 5.9 0 0 1 .18 1.46z" data-original="#d9b18c"/>
  <path xmlns="http://www.w3.org/2000/svg" d="M87 75.43a5.9 5.9 0 0 1-5.69 4.4H14.7V71h66.6a5.8 5.8 0 0 1 4.15 1.72A5.72 5.72 0 0 1 87 75.43z" data-original="#e5c2a1"/>
  <rect xmlns="http://www.w3.org/2000/svg" width="58.76" height="2.94" x="24.49" y="73.96" data-original="#f2d3b8" rx="1.47"/>
  <path xmlns="http://www.w3.org/2000/svg" d="M94 88.65a5.87 5.87 0 0 1-5.87 5.87H7.84V82.77h80.32a5.89 5.89 0 0 1 5.69 4.41 6.43 6.43 0 0 1 .15 1.47z" data-original="#d9b18c"/>
  <path xmlns="http://www.w3.org/2000/svg" d="M93.85 87.18a5.9 5.9 0 0 1-5.69 4.41H7.84v-8.82h80.32a5.89 5.89 0 0 1 5.69 4.41z" data-original="#e5c2a1"/>
  <rect xmlns="http://www.w3.org/2000/svg" width="72.48" height="2.94" x="17.64" y="85.71" data-original="#f2d3b8" rx="1.47"/>
  <circle xmlns="http://www.w3.org/2000/svg" cx="14.7" cy="76.89" r="5.88" data-original="#cba07a"/>
  <circle xmlns="http://www.w3.org/2000/svg" cx="14.7" cy="76.89" r="2.94" data-original="#d9b18c"/>
  <circle xmlns="http://www.w3.org/2000/svg" cx="7.84" cy="88.65" r="5.88" data-original="#cba07a"/>
  <circle xmlns="http://www.w3.org/2000/svg" cx="7.84" cy="88.65" r="2.94" data-original="#d9b18c"/>
  <path xmlns="http://www.w3.org/2000/svg" d="M48 57.31a9.81 9.81 0 0 1-9.79-9.8h3.91A5.88 5.88 0 1 0 48 41.64h-2v-8.82h4v5.1a9.79 9.79 0 0 1-2 19.39z" data-original="#b8c0ce"/>
  <g xmlns="http://www.w3.org/2000/svg" fill="#39426a">
    <path d="M43.1 12.25a3.92 3.92 0 1 0 3.9 3.92 3.92 3.92 0 0 0-3.9-3.92zm0 5.88a2 2 0 1 1 2-2 2 2 0 0 1-2 2zM52.9 20.09a3.92 3.92 0 1 0-3.9-3.92 3.92 3.92 0 0 0 3.9 3.92zm0-5.88a2 2 0 1 1-2 2 2 2 0 0 1 2-2z" data-original="#39426a"/>
    <circle cx="44.08" cy="27.92" r=".98" data-original="#39426a"/>
    <circle cx="51.92" cy="27.92" r=".98" data-original="#39426a"/>
    <path d="M88.16 81.79h-2.07A6.85 6.85 0 0 0 81.3 70H69L54.39 56.17a10.76 10.76 0 0 0-3.45-19V33.8h4.9a1 1 0 0 0 .94-.73l4.9-18.61a1 1 0 0 0-.26-.94l-4.89-4.9a1 1 0 0 0-.69-.28h-2V2.46a1 1 0 0 0-2 0v5.88h-7.76V2.46a1 1 0 1 0-2 0v5.88h-2a1 1 0 0 0-.69.28l-4.89 4.9a1 1 0 0 0-.26.94l4.9 18.61a1 1 0 0 0 .94.73h4.9v7.84a1 1 0 0 0 1 1h2A4.89 4.89 0 0 1 49.94 52a3.55 3.55 0 0 0-3.88 0 4.92 4.92 0 0 1-3-4.5 1 1 0 0 0-1-1h-5.81a1 1 0 0 0 0 2h1a10.76 10.76 0 0 0 4.32 7.68L27 70H14.7a6.85 6.85 0 0 0-4.79 11.79H7.84a6.86 6.86 0 0 0 0 13.71h80.32a6.86 6.86 0 0 0 0-13.71zM40.92 31.84l-4.56-17.33 4.21-4.22h14.86l4.21 4.22-4.56 17.33zm5.59 22.36a6.67 6.67 0 0 0 1.49.17 6.86 6.86 0 1 0 0-13.71h-1V33.8h2v4.12a1 1 0 0 0 .78.95A8.82 8.82 0 0 1 48 56.33a8.73 8.73 0 0 1-3.12-.58zm-7.27-5.71h2a6.89 6.89 0 0 0 3.29 4.92l-1.45 1.38a8.81 8.81 0 0 1-3.84-6.3zm4.1 8.73a10.66 10.66 0 0 0 9.31 0L66.12 70H29.88zM9.8 76.89a4.9 4.9 0 1 1 4.9 4.9 4.9 4.9 0 0 1-4.9-4.9zm-2 16.65a4.9 4.9 0 1 1 4.9-4.89 4.89 4.89 0 0 1-4.86 4.89zm23.51-3.91a3.92 3.92 0 0 1-3.92 3.91H12.63a6.82 6.82 0 0 0 0-9.79h18.72zm0-7.84H19.49a6.82 6.82 0 0 0 0-9.79h7.94a3.92 3.92 0 0 1 3.92 3.92zm41.14 7.84a3.92 3.92 0 0 1-3.92 3.91H31.8a5.86 5.86 0 0 0 1.51-3.91v-5.88h39.18zm0-7.84H33.31v-5.87A5.83 5.83 0 0 0 31.79 72h36.78a3.92 3.92 0 0 1 3.92 3.92zM81.3 72a4.9 4.9 0 1 1 0 9.79h-6.86v-5.87A5.82 5.82 0 0 0 72.93 72zm6.86 21.54H72.94a5.85 5.85 0 0 0 1.5-3.91v-5.88h13.72a4.9 4.9 0 0 1 0 9.79z" data-original="#39426a"/>
  </g>
</svg>
