   <svg
    xmlns="http://www.w3.org/2000/svg"
    version="1.1"
    xmlnsXlink="http://www.w3.org/1999/xlink" 
    width="512"
    height="512"
    x="0"
    y="0"
    viewBox="0 0 96 96"
    style="enable-background:new 0 0 512 512"
    xmlSpace="preserve"
   fill="gray"
  >
    <g>
      <path
        xmlns="http://www.w3.org/2000/svg"
        d="m53.87 25.95v21.54h-18.61l-18.17-5.87-11.68-3.78 1.97-2.3 8.22-9.59z"
       
        data-original="#f6b756"
        className=""
      ></path>
      <path
        xmlns="http://www.w3.org/2000/svg"
        d="m53.87 32.8v7.84a3.92 3.92 0 0 1 -3.87 3.92h-14.12a4.13 4.13 0 0 1 -1.21-.19l-17.58-5.69-2.57-.83a2.86 2.86 0 0 1 -1.28-4.58l2.58-3a4 4 0 0 1 3-1.36h31.18a3.91 3.91 0 0 1 3.87 3.89z"
       
        data-original="#fac77d"
        className=""
      ></path>
      <path
        xmlns="http://www.w3.org/2000/svg"
        d="m68.56 17.13v3.92h-6.39l-7.84 4.9h-38.73l-10.19 11.89-.98 1.13-2.47-2.25 11.83-14.69h39.62l7.84-4.9z"
       
        data-original="#f6b756"
        className=""
      ></path>
      <path
        xmlns="http://www.w3.org/2000/svg"
        d="m94 38.2v18.11h-2l-5.81-14.69h-24.48v-13.71a2 2 0 0 1 1.95-2h18.34a2 2 0 0 1 1.79 1.16l1.21 2.8 2.17 4.89 5.44 1.56a2 2 0 0 1 1.39 1.88z"
       
        data-original="#f6b756"
        className=""
      ></path>
      <path
        xmlns="http://www.w3.org/2000/svg"
        d="m92.56 41.62h1.44a0 0 0 0 1 0 0v4.9a0 0 0 0 1 0 0h-1.44a2.45 2.45 0 0 1 -2.45-2.45 2.45 2.45 0 0 1 2.45-2.45z"
       
        data-original="#cf4055"
      ></path>
      <path
        xmlns="http://www.w3.org/2000/svg"
        d="m85 29.86h-10.56v4.9h12.73"
       
        data-original="#c3e1f5"
      ></path>
      <path
        xmlns="http://www.w3.org/2000/svg"
        d="m65.62 29.87h4.9v4.9h-4.9z"
       
        data-original="#c3e1f5"
      ></path>
      <path
        xmlns="http://www.w3.org/2000/svg"
        d="m59.75 45.54h27.42v12.73h-27.42z"
       
        data-original="#5c5f7d"
        className=""
      ></path>
      <path
        xmlns="http://www.w3.org/2000/svg"
        d="m61.71 34.76v6.86h-2.94l-4.39 15.67h-16.78a15.68 15.68 0 0 0 -14.09-8.82 16 16 0 0 0 -1.85.11 15.22 15.22 0 0 0 -3.39.79l-3.58-2.85v-4.9h2.4l18.17 5.87h18.61v-12.73z"
       
        data-original="#dd8b37"
      ></path>
      <path
        xmlns="http://www.w3.org/2000/svg"
        d="m87.17 56.31h6.86v5.88h-6.86z"
       
        data-original="#969cb2"
      ></path>
      <path
        xmlns="http://www.w3.org/2000/svg"
        d="m38.2 61.21h17.63v4.9h-17.63z"
       
        data-original="#8288a1"
        className=""
      ></path>
      <path
        xmlns="http://www.w3.org/2000/svg"
        d="m38.2 57.29h17.63v3.92h-17.63z"
       
        data-original="#969cb2"
      ></path>
      <path
        xmlns="http://www.w3.org/2000/svg"
        d="m92.07 56.31h-3.92l-4.31-10.77h-22.25l-5.76 20.56h-3.92l1.37-4.89 5.49-19.59h27.42z"
       
        data-original="#8288a1"
        className=""
      ></path>
      <circle
        xmlns="http://www.w3.org/2000/svg"
        cx="23.51"
        cy="64.14"
       
        r="15.67"
        data-original="#5c5f7d"
        className=""
      ></circle>
      <circle
        xmlns="http://www.w3.org/2000/svg"
        cx="23.51"
        cy="64.14"
       
        r="10.77"
        data-original="#6a6e86"
        className=""
      ></circle>
      <circle
        xmlns="http://www.w3.org/2000/svg"
        cx="23.51"
        cy="64.14"
       
        r="7.84"
        data-original="#f6b756"
        className=""
      ></circle>
      <circle
        xmlns="http://www.w3.org/2000/svg"
        cx="23.51"
        cy="64.14"
       
        r="2.81"
        data-original="#b8c0ce"
      ></circle>
      <circle
        xmlns="http://www.w3.org/2000/svg"
        cx="73.46"
        cy="64.14"
       
        r="15.67"
        data-original="#5c5f7d"
        className=""
      ></circle>
      <circle
        xmlns="http://www.w3.org/2000/svg"
        cx="73.46"
        cy="64.14"
       
        r="10.77"
        data-original="#6a6e86"
        className=""
      ></circle>
      <circle
        xmlns="http://www.w3.org/2000/svg"
        cx="73.46"
        cy="64.14"
       
        r="7.84"
        data-original="#f6b756"
        className=""
      ></circle>
      <circle
        xmlns="http://www.w3.org/2000/svg"
        cx="73.46"
        cy="64.14"
       
        r="2.81"
        data-original="#b8c0ce"
      ></circle>
      <g xmlns="http://www.w3.org/2000/svg">
        <path
          d="m23.51 73a8.82 8.82 0 1 0 -8.82-8.82 8.82 8.82 0 0 0 8.82 8.82zm0-15.67a6.86 6.86 0 1 1 -6.86 6.85 6.85 6.85 0 0 1 6.86-6.89z"
         
          data-original="#39426a"
          className=""
        ></path>
        <path
          d="m23.51 68.06a3.92 3.92 0 1 0 -3.92-3.92 3.92 3.92 0 0 0 3.92 3.92zm0-5.87a2 2 0 1 1 -2 2 2 2 0 0 1 2-2z"
         
          data-original="#39426a"
          className=""
        ></path>
        <path
          d="m73.46 73a8.82 8.82 0 1 0 -8.82-8.82 8.82 8.82 0 0 0 8.82 8.82zm0-15.67a6.86 6.86 0 1 1 -6.86 6.85 6.85 6.85 0 0 1 6.86-6.89z"
         
          data-original="#39426a"
          className=""
        ></path>
        <path
          d="m73.46 68.06a3.92 3.92 0 1 0 -3.92-3.92 3.92 3.92 0 0 0 3.92 3.92zm0-5.87a2 2 0 1 1 -2 2 2 2 0 0 1 2-2z"
         
          data-original="#39426a"
          className=""
        ></path>
        <path
          d="m92.87 35.37-5-1.42-2-4.45-1.23-2.76a2.93 2.93 0 0 0 -2.64-1.74h-18.34a2.94 2.94 0 0 0 -2.93 2.94v5.87h-5.88v-7l7.6-4.81h6.11a1 1 0 0 0 1-1v-3.87a1 1 0 0 0 -1-1h-7.32a1 1 0 0 0 -.52.15l-7.59 4.75h-39.34a1 1 0 0 0 -.76.37l-11.83 14.71a1 1 0 0 0 .1 1.33l2.47 2.26a1 1 0 0 0 .66.25h.06a1 1 0 0 0 .68-.34l.55-.61 8 2.59s0 0 0 .06v4.9a1 1 0 0 0 .37.76l2.3 1.84a16.82 16.82 0 0 0 -5.85 4.62 1.16 1.16 0 0 0 -.16.21 16.56 16.56 0 0 0 -3.52 10.16 16.12 16.12 0 0 0 .14 1.86 16.64 16.64 0 0 0 6.13 11.1.89.89 0 0 0 .22.16 16.56 16.56 0 0 0 10.19 3.51c.62 0 1.24 0 1.85-.1a16.6 16.6 0 0 0 11.09-6.13.87.87 0 0 0 .17-.21 16.56 16.56 0 0 0 3.23-7.26h15.95a1 1 0 0 0 .94-.71l.13-.47s0 .06 0 .09a16.64 16.64 0 0 0 6.13 11.1.89.89 0 0 0 .22.16 16.56 16.56 0 0 0 10.19 3.51c.62 0 1.24 0 1.85-.1a16.6 16.6 0 0 0 11.09-6.13.87.87 0 0 0 .17-.21 16.57 16.57 0 0 0 3.51-10.2c0-.33 0-.65 0-1h4a1 1 0 0 0 1-1v-24a3 3 0 0 0 -2.19-2.74zm.18 10.17h-.49a1.47 1.47 0 0 1 0-2.94h.49zm-7.39-11.76h-10.24v-2.94h8.94zm-23-5.87a1 1 0 0 1 1-1h18.34a1 1 0 0 1 .9.58l.61 1.38h-9a1 1 0 0 0 -1 1v4.89a1 1 0 0 0 1 1h12.49l5.31 1.52a1 1 0 0 1 .71.94v2.44h-.49a3.43 3.43 0 1 0 0 6.85h.49v7.84h-.32l-5.6-14.1a1 1 0 0 0 -.91-.61h-23.5v-12.73zm-58.32 9.66-1-1 10.92-13.57h39.15a1 1 0 0 0 .52-.15l7.6-4.75h6v2h-5.36a.93.93 0 0 0 -.52.15l-7.6 4.75h-38.45a1 1 0 0 0 -.75.34zm7.42-5.64v4.36a1 1 0 1 0 2 0v-6.64l2.34-2.72h1.58v11.26a1 1 0 1 0 2 0v-11.26h3.92v13.16a1 1 0 0 0 2 0v-13.16h3.92v15.07a1 1 0 1 0 1.95 0v-15.07h3.92v16.65a1 1 0 0 0 2 0v-16.65h3.92v16.65a1 1 0 1 0 2 0v-16.65h3.69v16.65a1 1 0 0 0 2 0v-16.65h3.92v19.59h-17.5l-18-5.83-10.32-3.33zm3.91 14.07v-3.4h1.27l18 5.83a1 1 0 0 0 .3 0h18.63a1 1 0 0 0 1-1v-11.69h5.88v4.9h-2a1 1 0 0 0 -1 .71l-4.18 15h-15.38a16.57 16.57 0 0 0 -4.27-5.14.89.89 0 0 0 -.22-.21 16.51 16.51 0 0 0 -10.19-3.52c-.63 0-1.24 0-1.85.11a16.43 16.43 0 0 0 -3.16.67zm36.87 14.23h-12.87a15.89 15.89 0 0 0 -.6-2h14zm-43.54 6.1 3.45-3.45a1 1 0 0 0 -1.39-1.39l-2.22 2.23a14.57 14.57 0 0 1 2.87-8.29h4.87a1 1 0 1 0 0-2h-3.13a14.66 14.66 0 0 1 7.88-3.84l3.45 3.45a1 1 0 0 0 1.38 0 1 1 0 0 0 0-1.38l-2.22-2.23a14.61 14.61 0 0 1 8.29 2.88v4.87a1 1 0 1 0 2 0v-3.1a14.59 14.59 0 0 1 3.77 7.92l-3.45 3.45a1 1 0 0 0 0 1.39 1 1 0 0 0 1.38 0l2.23-2.23a14.57 14.57 0 0 1 -2.87 8.29h-4.86a1 1 0 0 0 0 2h3.14a14.66 14.66 0 0 1 -7.88 3.84l-3.45-3.54a1 1 0 0 0 -1.38 1.39l2.22 2.22a14.6 14.6 0 0 1 -8.29-2.87v-4.87a1 1 0 0 0 -2 0v3.14a14.68 14.68 0 0 1 -3.79-7.88zm31.05-4s0-.06 0-.08h11.95l-.82 2.93h-11.07c0-.32 0-.64 0-1a16 16 0 0 0 -.06-1.88zm15 2.82h-1.85l6.31-22.55h26l5.09 12.73h-1.79l-4.06-10.16a1 1 0 0 0 -.91-.61h-22.25a1 1 0 0 0 -.94.71zm7.24-18.6h20.89l2.57 6.45a16.73 16.73 0 0 0 -1.88-1.79.89.89 0 0 0 -.22-.16 16.51 16.51 0 0 0 -10.19-3.52c-.63 0-1.24 0-1.85.11a16.64 16.64 0 0 0 -11.1 6.13 1.16 1.16 0 0 0 -.16.21l-.11.16zm-3.29 19.78 3.45-3.45a1 1 0 0 0 -1.45-1.39l-2.22 2.23a14.57 14.57 0 0 1 2.87-8.29h4.87a1 1 0 1 0 0-2h-3.12a14.66 14.66 0 0 1 7.88-3.84l3.45 3.45a1 1 0 0 0 1.38 0 1 1 0 0 0 0-1.38l-2.22-2.23a14.61 14.61 0 0 1 8.29 2.88v4.87a1 1 0 1 0 1.95 0v-3.1a14.59 14.59 0 0 1 3.87 7.92l-3.45 3.45a1 1 0 0 0 0 1.39 1 1 0 0 0 1.38 0l2.23-2.23a14.57 14.57 0 0 1 -2.87 8.29h-4.91a1 1 0 0 0 0 2h3.14a14.66 14.66 0 0 1 -7.88 3.84l-3.45-3.54a1 1 0 0 0 -1.38 1.39l2.19 2.22a14.6 14.6 0 0 1 -8.29-2.87v-4.87a1 1 0 0 0 -2 0v3.14a14.68 14.68 0 0 1 -3.71-7.88zm34.1-5.12h-3.27a15.69 15.69 0 0 0 -1.22-3.92h4.44z"
         
          data-original="#39426a"
          className=""
        ></path>
        <path
          d="m65.62 35.74h4.9a1 1 0 0 0 1-1v-4.87a1 1 0 0 0 -1-1h-4.9a1 1 0 0 0 -1 1v4.89a1 1 0 0 0 1 .98zm1-4.9h2.94v2.94h-2.96z"
         
          data-original="#39426a"
          className=""
        ></path>
      </g>
    </g>
  </svg>
 
