   <svg
    xmlns="http://www.w3.org/2000/svg"
    version="1.1"
    xmlnsXlink="http://www.w3.org/1999/xlink"
    width="512"
    height="512"
    x="0"
    y="0"
    viewBox="0 0 96 96" 
    xmlSpace="preserve"
    fill="blue"
  >
    <g>
      <path
        xmlns="http://www.w3.org/2000/svg"
        d="m28.42 2.5h3.92v15.67h-3.92z"
        data-original="#e69c4b"
      ></path>
      <path
        xmlns="http://www.w3.org/2000/svg"
        d="m1.98 18.17h92.06v5.88h-92.06z"

        data-original="#dd8b37"
      ></path>
      <path
        xmlns="http://www.w3.org/2000/svg"
        d="m1.98 20.12h92.06v1.96h-92.06z"

        data-original="#e69c4b"
      ></path>
      <path
        xmlns="http://www.w3.org/2000/svg"
        d="m25.49 24.04h9.79v62.68h-9.79z"

        data-original="#dd8b37"
      ></path>
      <path
        xmlns="http://www.w3.org/2000/svg"
        d="m29.4 24.04h1.96v62.68h-1.96z"
        
        data-original="#e69c4b"
      ></path>
      <path
        xmlns="http://www.w3.org/2000/svg"
        d="m14.71 86.72h31.34v7.84h-31.34z"
        data-original="#5c5f7d"
      ></path>
      <path
        xmlns="http://www.w3.org/2000/svg"
        d="m17.65 86.72h27.42a0 0 0 0 1 0 0v2.94a2 2 0 0 1 -2 2h-23.46a2 2 0 0 1 -2-2v-2.94a0 0 0 0 1 .04 0z"
        
        data-original="#6a6e86"
      ></path>
      <path
        xmlns="http://www.w3.org/2000/svg"
        d="m56.83 69.09h35.26v17.63h-35.26z"
        data-original="#dc5d6b"
      ></path>
      <path
        xmlns="http://www.w3.org/2000/svg"
        d="m59.76 69.09h31.35a0 0 0 0 1 0 0v11.76a2.94 2.94 0 0 1 -2.94 2.94h-25.47a2.94 2.94 0 0 1 -2.94-2.94v-11.76a0 0 0 0 1 0 0z"
        
        data-original="#e47980"
      ></path>
      <path
        xmlns="http://www.w3.org/2000/svg"
        d="m61.72 72h26.45a1 1 0 0 1 1 1v7.84a1 1 0 0 1 -1 1h-16.65a9.79 9.79 0 0 1 -9.8-9.84 0 0 0 0 1 0 0z"
        
        data-original="#f4929c"
      ></path>
      <path
        xmlns="http://www.w3.org/2000/svg"
        d="m55.85 65.18h37.22v3.92h-37.22z"
        
        data-original="#cf4055"
        className=""
      ></path>
      <path
        xmlns="http://www.w3.org/2000/svg"
        d="m55.85 86.72h37.22v3.92h-37.22z"
        
        data-original="#cf4055"
        className=""
      ></path>
      <path
        xmlns="http://www.w3.org/2000/svg"
        d="m71.52 38.73h5.88v5.88h-5.88z"
        
        data-original="#f6b756"
      ></path>
      <path
        xmlns="http://www.w3.org/2000/svg"
        d="m72.5 38.73h4.9a0 0 0 0 1 0 0v4.9a0 0 0 0 1 0 0 4.9 4.9 0 0 1 -4.9-4.9 0 0 0 0 1 0 0z"
        
        data-original="#fac77d"
      ></path>
      <path
        xmlns="http://www.w3.org/2000/svg"
        d="m74.46 39.71a1 1 0 0 1 -1-1v-10.71a1 1 0 0 1 2 0v10.73a1 1 0 0 1 -1 .98z"
        
        data-original="#8288a1"
      ></path>
      <path
        xmlns="http://www.w3.org/2000/svg"
        d="m92.08 66.16a.9.9 0 0 1 -.47-.13l-17.61-9.79a1 1 0 1 1 1-1.71l17.63 9.79a1 1 0 0 1 .38 1.33 1 1 0 0 1 -.93.51z"
        
        data-original="#5c5f7d"
      ></path>
      <path
        xmlns="http://www.w3.org/2000/svg"
        d="m2 19.15a1 1 0 0 1 -.84-.49 1 1 0 0 1 .34-1.34l26.42-15.67a1 1 0 1 1 1 1.69l-26.44 15.66a1 1 0 0 1 -.48.15z"
        
        data-original="#5c5f7d"
      ></path>
      <path
        xmlns="http://www.w3.org/2000/svg"
        d="m94 19.15a.71.71 0 0 1 -.24 0l-61.66-15.71a1 1 0 1 1 .48-1.89l61.71 15.67a1 1 0 0 1 .7 1.19 1 1 0 0 1 -.99.74z"
        
        data-original="#5c5f7d"
      ></path>
      <path
        xmlns="http://www.w3.org/2000/svg"
        d="m74.46 57.34a4.88 4.88 0 0 1 -4.9-4.9 1 1 0 0 1 2 0 2.94 2.94 0 0 0 5.79.71 3 3 0 0 0 -1.57-3.35 3.89 3.89 0 0 1 -2.26-3.46v-1.73a1 1 0 1 1 2 0v1.73a1.93 1.93 0 0 0 1.08 1.66 4.92 4.92 0 0 1 2.62 5.55 4.84 4.84 0 0 1 -3.62 3.62 4.92 4.92 0 0 1 -1.14.17z"
        
        data-original="#8288a1"
      ></path>
      <path
        xmlns="http://www.w3.org/2000/svg"
        d="m77.39 45.59h-5.87a1 1 0 0 1 -1-1v-5.86a1 1 0 0 1 1-1h5.87a1 1 0 0 1 1 1v5.88a1 1 0 0 1 -1 .98zm-4.89-2h3.91v-3.88h-3.91z"
        
        data-original="#39426a"
        className=""
      ></path>
      <path
        xmlns="http://www.w3.org/2000/svg"
        d="m57.81 66.16a1 1 0 0 1 -.5-1.83l16.69-9.79a1 1 0 0 1 1.34.35 1 1 0 0 1 -.34 1.34l-16.7 9.77a1 1 0 0 1 -.49.16z"
        
        data-original="#5c5f7d"
      ></path>
      <g xmlns="http://www.w3.org/2000/svg" >
        <path
          d="m94 17.19h-47a.38.38 0 0 0 -.15 0h-13.53v-14.69a1 1 0 0 0 -1-1h-3.9a1 1 0 0 0 -1 1v14.69h-19.49a.28.28 0 0 0 -.13 0h-5.8a1 1 0 0 0 -1 1v5.81a1 1 0 0 0 .08.38 1 1 0 0 0 .53.53.94.94 0 0 0 .39.09h22.51v60.74h-9.8a1 1 0 0 0 -1 1v7.84a1 1 0 0 0 1 1h31.34a1 1 0 0 0 1-1v-7.86a1 1 0 0 0 -1-1h-9.79v-60.72h32.66a5.87 5.87 0 0 0 11.08 0h14a1 1 0 0 0 1-1v-5.83a1 1 0 0 0 -1-.98zm-64.6-13.72h2v13.72h-2zm-2.94 15.68h7.84v3.91h-7.84zm0 5.87h7.84v.58l-3.92 3.91-3.92-3.91zm7.43 20.57-3.51 3.51-3.51-3.51 3.51-3.51zm-7-9.79 3.51-3.52 3.51 3.52-3.51 3.51zm7 19.58-3.51 3.52-3.51-3.52 3.51-3.51zm0 9.8-3.51 3.51-3.51-3.51 3.51-3.51zm0 9.79-3.51 3.51-3.51-3.48 3.51-3.51zm.41 2.37v5.06l-2.53-2.53zm-2.53-7.27 2.53-2.53v5.07zm0-9.79 2.53-2.53v5.06zm0-9.79 2.53-2.49v5zm0-9.8 2.53-2.53v5.06zm0-9.79 2.53-2.53v5.06zm-5.31-2.53 2.54 2.53-2.54 2.53zm0 9.79 2.54 2.53-2.54 2.53zm0 9.79 2.54 2.54-2.54 2.51zm0 9.8 2.54 2.53-2.54 2.53zm0 9.79 2.54 2.53-2.54 2.54zm0 9.8 2.54 2.53-2.54 2.53zm0 7.83 3.92-3.92 3.92 3.92v.57h-7.84zm-23.46-66.02h2.49l-2.49 2.53zm1.38 3.91 3.53-3.52 3.52 3.52zm5.91-3.91h7l-3.5 3.49zm5.85 3.91 3.51-3.51 3.51 3.51zm5.86-3.91h2.54v2.53zm23.07 68.55v5.88h-29.38v-5.88zm-8.81-64.64v-2.53l2.53 2.53zm1.38-3.91h6.93l-3.46 3.46zm5.78 3.91 3.58-3.56 3.56 3.56zm6-3.91h6.71l-3.38 3.35zm5.58 3.91 3.18-3.18 3.18 3.18zm5.21-3.91h6.79l-3.4 3.39zm8.41 3.91h-2.81l2.77-2.77zm9.79 0a3.92 3.92 0 1 1 -7.83 0v-3.91h7.83zm12-3.91-3.41 3.34-3.34-3.34zm-10 0h.58l3.91 3.91h-4.57zm8.89 3.91 3.84-3.84v3.84z"
          
          data-original="#39426a"
          className=""
        ></path>
        <circle
          cx="74.46"
          cy="23.06"
          r="1.96"
          
          data-original="#39426a"
          className=""
        ></circle>
        <path
          d="m62.7 83.79a1 1 0 0 0 1-1v-9.79a1 1 0 1 0 -2 0v9.8a1 1 0 0 0 1 .99z"
          
          data-original="#39426a"
          className=""
        ></path>
        <path
          d="m68.58 83.79a1 1 0 0 0 1-1v-9.79a1 1 0 0 0 -2 0v9.8a1 1 0 0 0 1 .99z"
          
          data-original="#39426a"
          className=""
        ></path>
        <path
          d="m74.46 83.79a1 1 0 0 0 1-1v-9.79a1 1 0 0 0 -2 0v9.8a1 1 0 0 0 1 .99z"
          
          data-original="#39426a"
          className=""
        ></path>
        <path
          d="m80.33 83.79a1 1 0 0 0 1-1v-9.79a1 1 0 0 0 -2 0v9.8a1 1 0 0 0 1 .99z"
          
          data-original="#39426a"
          className=""
        ></path>
        <path
          d="m86.21 83.79a1 1 0 0 0 1-1v-9.79a1 1 0 0 0 -2 0v9.8a1 1 0 0 0 1 .99z"
          
          data-original="#39426a"
          className=""
        ></path>
        <path
          d="m94 69.09v-3.91a1 1 0 0 0 -1-1h-37.15a1 1 0 0 0 -1 1v3.91a1 1 0 0 0 1 1v15.65a1 1 0 0 0 -1 1v3.92a1 1 0 0 0 1 1h37.21a1 1 0 0 0 1-1v-3.94a1 1 0 0 0 -1-1v-15.65a1 1 0 0 0 .94-.98zm-37.17-2.93h35.26v2h-35.26zm35.26 23.5h-35.26v-2h35.26zm-1-3.92h-33.28v-15.67h33.3z"
          
          data-original="#39426a"
          className=""
        ></path>
      </g>
    </g>
  </svg>
 