 <svg
    xmlns="http://www.w3.org/2000/svg"
    version="1.1"
    xmlnsXlink="http://www.w3.org/1999/xlink"
    width="512"
    height="512"
    x="0"
    y="0"
    viewBox="0 0 110 110"
    style="enable-background:new 0 0 512 512"
    xmlSpace="preserve"
  fill="gray"
  >
    <g>
      <g xmlns="http://www.w3.org/2000/svg">
        <g>
          <path
            d="m89.8768921 28.5374146-7.9099731-6.6599121c-.0800171-.0700684-.1699829-.1300049-.2600098-.1700439 1.25-2.1500244 1.0700073-4.9400635-.6500244-6.9100342-2.1599731-2.4699707-12.2999878-5.039917-12.2999878-5.039917s1.210022 10.3900146 3.3699951 12.8499756c1.7999878 2.0600586 4.710022 2.5700684 7.0599976 1.4299316.1000366.2200928.2600098.4300537.460022.6000977l7.9099731 6.6599121c2.3099976 1.9500732 3.2700195 5.0800781 2.4400024 7.9899902l-4.8696899 17.0688477-2.5534058-.7281494c-.9782715-.2789307-1.9974976.2879639-2.2765503 1.2662354l-10.7166748 37.57666c-.2790527.9782715.2878418 1.9974365 1.2661743 2.2764893l5.2420654 1.4949951h-22.9953002c7.6896362-1.9674072 13.3834229-8.9226074 13.3834229-17.2250977v-30.5656738h2.1737671c1.6568604 0 3-1.3432617 3-3v-5.6633301c0-1.6568604-1.3431396-3-3-3h-2.1775513c-.0807496-13.5109863-11.0562745-24.4309082-24.5862427-24.4309082h-5.1300049c-13.5299683 0-24.4955444 10.9199219-24.5762329 24.4309082h-2.1807251c-1.6568604 0-3 1.3431396-3 3v5.6633301c0 1.6567383 1.3431396 3 3 3h2.1769409v30.5656738c0 8.3024902 5.6937866 15.2576904 13.3834229 17.2250977h-18.5603028c-.5522461 0-1 .4472656-1 1s.4477539 1 1 1h85.65625c.5522461 0 1-.4472656 1-1s-.4477539-1-1-1h-11.081604c.0496826-.0998535.0936279-.2041016.1253052-.3151855l10.7166748-37.5766602c.2790527-.9782715-.2878418-1.9975586-1.2661743-2.2764893l-2.5531006-.7281494 4.8595581-17.0686035c1.2199707-4.2698975-.1900025-8.8798828-3.5800171-11.7399902zm-9.3800049-5.3698731c-1.2999878 1.1298828-3.2699585 1-4.4099731-.3000488-1.1400146-1.2900391-1.7800293-6.7700195-1.7800293-6.7700195s5.3500366 1.3599854 6.4800415 2.6600342c1.1399536 1.2899169 1.0100097 3.2698974-.2900391 4.4100341zm-57.4699707 42.8299561v-18.8299561c0-1.5700684 1.2799683-2.8500977 2.8499756-2.8500977h26.8900146c1.5800171 0 2.8599854 1.2800293 2.8599854 2.8500977v18.8299561c0 1.5799561-1.2799683 2.8499756-2.8599854 2.8499756h-26.8900146c-1.5700073-.0000001-2.8499756-1.2700196-2.8499756-2.8499756z"
             
            data-original="#000000"
            className=""
          ></path>
          <path
            d="m103 98.2424927h-5.0727539c-.5522461 0-1 .4472656-1 1s.4477539 1 1 1h5.0727539c.5522461 0 1-.4472656 1-1s-.4477539-1-1-1z"
         
            data-original="#000000"
            className=""
          ></path>
        </g>
      </g>
    </g>
  </svg>